<svg xmlns="http://www.w3.org/2000/svg" viewBox="1613.0 596.5 972.0 972.0"><g transform="translate(206 160)">
<path d="M0 0 C16.04653973 -0.18705467 32.09272473 -0.32803835 48.1400919 -0.41449738 C55.59156852 -0.45571286 63.04236696 -0.51188119 70.4934082 -0.60351562 C76.98937485 -0.68336613 83.48485029 -0.73489177 89.9812941 -0.75270796 C93.42001322 -0.76311981 96.85732739 -0.78750522 100.29559517 -0.84584045 C104.13816358 -0.91050371 107.97936984 -0.91191212 111.82250977 -0.90820312 C112.95683441 -0.93696533 114.09115906 -0.96572754 115.25985718 -0.99536133 C122.84191089 -0.91617425 122.84191089 -0.91617425 126.20745659 1.74633789 C127.96809281 3.75273706 129.47936296 5.80975018 131 8 C132.77810772 9.72370109 134.58763895 11.4160412 136.4375 13.0625 C137.84708984 14.32126953 137.84708984 14.32126953 139.28515625 15.60546875 C140.62900391 16.79076172 140.62900391 16.79076172 142 18 C143.14275391 19.01513672 143.14275391 19.01513672 144.30859375 20.05078125 C147.07242102 22.49068169 149.83183506 24.87005436 152.75 27.125 C155 29 155 29 156.875 31.4375 C158.78423942 33.73981812 160.32034312 35.02869811 162.75 36.6875 C163.8225 37.450625 164.895 38.21375 166 39 C166 39.66 166 40.32 166 41 C166.58910156 41.27199219 167.17820312 41.54398438 167.78515625 41.82421875 C173.30075443 44.75225235 177.62798759 49.62798759 182 54 C184.22476 55.99657948 186.46712119 57.97128892 188.71875 59.9375 C191.23414442 62.21169222 193.60379958 64.60035181 196 67 C198.62882049 69.51818591 201.28215061 72.00983947 203.9375 74.5 C204.62779297 75.15097656 205.31808594 75.80195312 206.02929688 76.47265625 C209.91915861 80.12285825 213.88289617 83.6094439 218 87 C219.68711423 88.6459651 221.3545622 90.31237149 223 92 C223.928125 92.928125 224.85625 93.85625 225.8125 94.8125 C226.534375 95.534375 227.25625 96.25625 228 97 C224.80763287 104.27150292 217.67028126 109.39085704 211.7578125 114.45703125 C210.32037286 115.71878383 208.95977503 117.06759931 207.625 118.4375 C206 120 206 120 204 120 C203.76925781 120.57878906 203.53851562 121.15757812 203.30078125 121.75390625 C201.6685183 124.57237831 199.77637365 125.96267837 197.1875 127.9375 C192.62033407 131.56014732 188.50339818 135.38887598 184.4375 139.5625 C179.927229 144.18692973 175.32245566 148.35939209 170.12109375 152.21875 C167.88544004 153.97687532 167.88544004 153.97687532 166.03515625 156.46484375 C163.89759662 159.12756198 161.6980156 160.97876474 159 163.0625 C154.09165334 166.98786669 149.68075953 171.20181928 145.2824707 175.68432617 C140.74515834 180.298781 135.99055587 184.54471872 130.9921875 188.6484375 C130.35539062 189.17695312 129.71859375 189.70546875 129.0625 190.25 C128.49660156 190.70890625 127.93070313 191.1678125 127.34765625 191.640625 C125.72982485 193.07162968 125.72982485 193.07162968 125 196 C83.75 196 42.5 196 0 196 C0 195.01 0 194.02 0 193 C2.0546875 191.0546875 2.0546875 191.0546875 4.875 188.875 C13.32682262 182.17183033 21.10330068 174.96186513 28.68164062 167.30151367 C31.95070198 164.00983816 35.30110252 160.89634744 38.828125 157.88671875 C41.66808905 155.41962768 44.42770728 152.86832919 47.1875 150.3125 C48.01967041 149.54208374 48.01967041 149.54208374 48.86865234 148.75610352 C50.00937616 147.69933828 51.1498356 146.6422876 52.29003906 145.58496094 C55.04416383 143.03216568 57.80317157 140.48466802 60.5625 137.9375 C61.10092529 137.44032471 61.63935059 136.94314941 62.1940918 136.4309082 C66.27778466 132.66186556 70.37218522 128.9046532 74.47192383 125.15307617 C77.10789728 122.73955507 79.73769279 120.31966925 82.359375 117.890625 C87.65070674 112.98874135 92.93904712 108.1003373 98.4140625 103.40234375 C100.00844351 101.99253394 101.51127265 100.52030642 103 99 C99.49968223 91.27920339 92.07925674 86.38098428 85.63671875 81.1953125 C82.79352206 78.828088 80.22240628 76.31487966 77.65234375 73.66015625 C75.33631742 71.33317944 72.85302088 69.22449076 70.3671875 67.08203125 C67.36278573 64.43954586 64.43236973 61.72189653 61.5 59 C57.87541387 55.63616799 54.23952882 52.29917551 50.5 49.0625 C46.48022853 45.57364175 42.75857245 41.97893635 39.4375 37.8125 C37.27877477 35.32166319 36.02611804 34.12078446 33 33 C33 32.34 33 31.68 33 31 C32.40316406 30.73316406 31.80632813 30.46632813 31.19140625 30.19140625 C28.95425676 28.97513068 27.65579933 27.79642741 25.9375 25.9375 C23.04540312 22.94673883 20.0071725 20.33808143 16.75 17.75 C10.76965054 12.93088345 5.09179836 7.76151265 0 2 C0 1.34 0 0.68 0 0 Z " fill="#A20202" transform="translate(2132,829)" />
<path d="M0 0 C11.88 0 23.76 0 36 0 C34.82218749 10.01140636 33.63915565 19.94679844 32.08984375 29.89453125 C31.91747696 31.01518478 31.74511017 32.13583832 31.56752014 33.29045105 C31.20848607 35.62037078 30.84800545 37.95006806 30.48608398 40.27954102 C29.93159944 43.85050047 29.3824742 47.42225597 28.83398438 50.99414062 C28.4820819 53.27348555 28.12987958 55.5527842 27.77734375 57.83203125 C27.53201149 59.42722343 27.53201149 59.42722343 27.28172302 61.05464172 C27.12808792 62.04054794 26.97445282 63.02645416 26.81616211 64.04223633 C26.68229599 64.90585281 26.54842987 65.7694693 26.4105072 66.65925598 C26.0364863 68.79195226 25.525149 70.899404 25 73 C39.52 73 54.04 73 69 73 C69 70.36 69 67.72 69 65 C69.20321302 63.26376286 69.45464372 61.53199434 69.76953125 59.8125 C69.93461182 58.87865479 70.09969238 57.94480957 70.26977539 56.98266602 C70.44887451 55.99838623 70.62797363 55.01410645 70.8125 54 C72.45273186 44.62900677 73.80800352 35.26437887 74.87231445 25.81054688 C75.88581185 17.09462431 77.46359243 8.70630956 79 0 C90.88 0 102.76 0 115 0 C115 5.11381144 114.74220487 9.73574826 113.9765625 14.734375 C113.87032562 15.45304749 113.76408875 16.17171997 113.65463257 16.91217041 C113.43000546 18.42519955 113.20296837 19.93787269 112.97363281 21.45019531 C112.6281741 23.72906162 112.28997694 26.00890975 111.953125 28.2890625 C111.03902782 34.43225182 110.10950452 40.5671626 108.9609375 46.671875 C107.72988077 53.24663903 106.88113051 59.87086966 106 66.5 C104.99126476 74.08915652 103.91727613 81.63055366 102.5 89.15429688 C101.488856 94.90912816 100.76974499 100.70887166 100 106.5 C98.98737629 114.11841117 97.9085426 121.68918059 96.48681641 129.2421875 C95.54936424 134.55284929 94.89370801 139.90462799 94.1875 145.25 C92.70481898 156.23287546 91.07525467 167.18376414 89.3125 178.125 C89.20408783 178.80324829 89.09567566 179.48149658 88.98397827 180.18029785 C87.17360164 191.47919507 87.17360164 191.47919507 86 195 C74.12 195 62.24 195 50 195 C51.12164675 183.78353254 51.12164675 183.78353254 51.83203125 179.828125 C51.98873291 178.93158203 52.14543457 178.03503906 52.30688477 177.11132812 C52.47373779 176.16708984 52.64059082 175.22285156 52.8125 174.25 C54.66814267 163.48641934 56.16537234 152.6943757 57.5168457 141.85644531 C58.67312529 132.7870515 60.30655362 124.03171401 62 115 C47.81 115.33 33.62 115.66 19 116 C17.77094439 125.04809161 17.77094439 125.04809161 16.54736328 134.09692383 C15.79575372 139.58782784 15.02476842 145.05810278 13.9921875 150.50390625 C12.45851902 158.64049255 11.53757186 166.87062268 10.5 175.08203125 C10.335 176.35691406 10.17 177.63179687 10 178.9453125 C9.855625 180.08500488 9.71125 181.22469727 9.5625 182.39892578 C8.90098273 186.63389963 7.92983512 190.81574197 7 195 C-4.88 195 -16.76 195 -29 195 C-28.32779464 186.93353569 -27.47688704 179.2346346 -26.0625 171.3125 C-24.7004562 163.44318504 -23.51549848 155.60070729 -22.64648438 147.66259766 C-22.11563768 142.84622093 -21.39580296 138.09618021 -20.5625 133.32421875 C-19.84049483 129.05736876 -19.19988912 124.78019671 -18.5625 120.5 C-18.37119507 119.2164563 -18.37119507 119.2164563 -18.17602539 117.90698242 C-17.91413119 116.14766191 -17.65249638 114.38830277 -17.39111328 112.62890625 C-16.76473911 108.41867086 -16.13215085 104.2093712 -15.5 100 C-15.24996814 98.33333811 -14.99996819 96.66667144 -14.75 95 C-12.25 78.33333333 -9.75 61.66666667 -7.25 45 C-7.12616943 44.17419434 -7.00233887 43.34838867 -6.87475586 42.49755859 C-6.62588832 40.8389821 -6.37670461 39.18045302 -6.12719727 37.52197266 C-5.48220548 33.2318703 -4.84353105 28.94096168 -4.21484375 24.6484375 C-4.08464844 23.76542969 -3.95445313 22.88242187 -3.8203125 21.97265625 C-3.57474343 20.30629471 -3.3310835 18.63965005 -3.08984375 16.97265625 C-2.24407794 11.25412607 -1.13757083 5.68785415 0 0 Z " fill="#A20101" transform="translate(1561,830)" />
<path d="M0 0 C11.88 0 23.76 0 36 0 C36 4.89146676 35.85000888 8.7425487 35.046875 13.4453125 C34.73955444 15.28452271 34.73955444 15.28452271 34.42602539 17.16088867 C34.31598175 17.80561127 34.20593811 18.45033386 34.09255981 19.11459351 C33.49975131 22.59365328 32.92659902 26.07591827 32.35546875 29.55859375 C32.23872299 30.26995987 32.12197723 30.98132599 32.00169373 31.71424866 C30.89537677 38.5220357 29.96615561 45.35006329 29.0625 52.1875 C27.68171389 62.58740206 26.04420508 72.91990737 24.27832031 83.26004028 C16.73113795 118.42438629 16.73113795 118.42438629 24.9375 152.0625 C29.74827227 156.58171031 34.40347756 156.50908668 40.8046875 156.3515625 C44.51447842 155.94339479 46.71063426 155.39019347 49.51171875 152.9296875 C58.12934207 141.75618114 60.07632922 126.56313043 62.375 113.0625 C62.69090088 111.22619019 62.69090088 111.22619019 63.01318359 109.3527832 C65.03591959 97.30558354 66.66739989 85.20887487 68.21240234 73.09204102 C69.23559373 65.14602397 70.44579339 57.28589251 71.97486877 49.42076111 C72.88869044 44.69899475 73.56793925 40.03235446 74.0625 35.25 C74.80395341 28.45074762 75.78360289 21.73261656 77 15 C77.17660156 13.99710938 77.35320312 12.99421875 77.53515625 11.9609375 C78.25297216 7.9305341 79.00649353 3.97402587 80 0 C91.55 0 103.1 0 115 0 C113.41223133 14.28991807 111.50497763 28.39163232 108.98217773 42.54345703 C107.2755814 52.19442173 105.78404249 61.86423398 104.375 71.5625 C104.15943292 73.03735484 103.94385682 74.51220837 103.72827148 75.98706055 C102.89001955 81.74147112 102.0578798 87.49594371 101.30078125 93.26171875 C91.23901967 168.24503738 91.23901967 168.24503738 65.47265625 190.1484375 C63.3654995 191.72630843 61.4197301 192.97771827 59.0625 194.125 C58.43472656 194.43695312 57.80695313 194.74890625 57.16015625 195.0703125 C56.09087891 195.53050781 56.09087891 195.53050781 55 196 C54.175 196.3609375 53.35 196.721875 52.5 197.09375 C38.63342767 200.68420176 21.11094545 199.43111157 8.4765625 192.64453125 C-5.94816035 183.7069538 -10.730147 170.68509718 -15 155 C-15.28472168 154.00637451 -15.28472168 154.00637451 -15.57519531 152.99267578 C-17.36902471 146.04680149 -17.38357837 139.14126441 -17.375 132 C-17.37545319 131.33636444 -17.37590637 130.67272888 -17.37637329 129.98898315 C-17.35485385 119.09027431 -16.53498697 108.37375451 -15.1875 97.5625 C-15.10481873 96.89565186 -15.02213745 96.22880371 -14.93695068 95.54174805 C-13.91572827 87.47870459 -12.57478616 79.50535719 -11.03485107 71.52912903 C-10.1222976 66.77154812 -9.43564186 62.06698343 -8.9375 57.25 C-8.22576031 50.4444129 -7.15864745 43.74342289 -6 37 C-5.66573222 35.01187563 -5.33238851 33.02359567 -5 31.03515625 C-4 25.0625 -4 25.0625 -3.5 22.08789062 C-2.2701623 14.73288467 -1.13416296 7.37205922 0 0 Z " fill="#A20101" transform="translate(1709,830)" />
<path d="M0 0 C1.25159912 0.00523682 2.50319824 0.01047363 3.79272461 0.01586914 C4.78942421 0.01799156 4.78942421 0.01799156 5.80625916 0.02015686 C7.93590735 0.02577021 10.06545175 0.03832485 12.19506836 0.05102539 C13.63582205 0.05603868 15.07657739 0.06060188 16.51733398 0.06469727 C20.05577938 0.07574394 23.59416375 0.09301747 27.13256836 0.11352539 C25.84650713 15.25858861 23.63178922 30.11820024 21.13256836 45.11352539 C29.05256836 45.11352539 36.97256836 45.11352539 45.13256836 45.11352539 C44.58358647 49.74029371 44.03305001 54.36682159 43.47851562 58.99291992 C43.29042019 60.56605227 43.1032371 62.13929398 42.91699219 63.71264648 C42.64881506 65.97677655 42.37733743 68.24049038 42.10522461 70.50415039 C41.98172386 71.55593475 41.98172386 71.55593475 41.85572815 72.62896729 C41.46144153 75.88341388 40.93004125 78.92363385 40.13256836 82.11352539 C31.55256836 82.11352539 22.97256836 82.11352539 14.13256836 82.11352539 C14.05006836 84.09352539 13.96756836 86.07352539 13.88256836 88.11352539 C13.4811942 95.21858081 12.396386 102.166883 11.19506836 109.17602539 C11.0165332 110.22177734 10.83799805 111.2675293 10.65405273 112.3449707 C10.02944493 115.97707653 9.40292602 119.60873059 8.7512207 123.23608398 C7.41812394 130.71301801 6.89087624 138.09379958 6.75756836 145.67602539 C6.73146484 146.53421875 6.70536133 147.39241211 6.6784668 148.27661133 C6.66723876 152.3267263 6.83845864 154.59702398 8.87866211 158.17993164 C11.4105311 160.35198563 12.30087428 160.7038276 15.57006836 160.48852539 C16.3112793 160.45500977 17.05249023 160.42149414 17.81616211 160.38696289 C20.29095225 160.09482915 22.69230711 159.61387128 25.13256836 159.11352539 C25.97885847 163.1108957 26.80723623 167.11177988 27.63256836 171.11352539 C27.9902832 172.80155273 27.9902832 172.80155273 28.35522461 174.52368164 C29.58030781 180.50908814 30.43206958 186.00370042 30.13256836 192.11352539 C28.21741046 192.92957538 26.30038002 193.74123171 24.38256836 194.55102539 C23.31522461 195.00348633 22.24788086 195.45594727 21.14819336 195.92211914 C11.52348505 199.72462696 -1.31317897 199.71285272 -11.29321289 197.27758789 C-19.46987867 193.48809115 -24.63601756 186.64030389 -28.04321289 178.48461914 C-28.31520508 177.7021582 -28.58719727 176.91969727 -28.86743164 176.11352539 C-29.22579102 175.10547852 -29.58415039 174.09743164 -29.95336914 173.05883789 C-31.36306112 167.96885022 -31.20694052 162.79598942 -31.17993164 157.55102539 C-31.17473511 155.90034058 -31.17473511 155.90034058 -31.16943359 154.21630859 C-31.0397751 144.24120081 -29.89282748 134.57561601 -28.29077148 124.74243164 C-27.87003675 122.1297029 -27.48237735 119.51419361 -27.10571289 116.89477539 C-25.93228627 108.76046141 -24.65605692 100.64716374 -23.24243164 92.55102539 C-23.11932617 91.84228271 -22.9962207 91.13354004 -22.86938477 90.40332031 C-22.35988215 87.54792408 -21.78635769 84.87030354 -20.86743164 82.11352539 C-25.48743164 82.11352539 -30.10743164 82.11352539 -34.86743164 82.11352539 C-34.21963412 70.32361051 -32.64250903 58.77927385 -30.86743164 47.11352539 C-28.7847027 46.77643631 -26.70122127 46.44399423 -24.61743164 46.11352539 C-23.45727539 45.92790039 -22.29711914 45.74227539 -21.10180664 45.55102539 C-17.86743164 45.11352539 -17.86743164 45.11352539 -13.86743164 45.11352539 C-13.6212207 43.82575195 -13.37500977 42.53797852 -13.12133789 41.21118164 C-11.69147816 34.06692216 -10.02130767 26.97937196 -8.35351562 19.88769531 C-7.79898567 17.5256988 -7.2501424 15.16242291 -6.70141602 12.79907227 C-6.34954721 11.29834035 -5.99734617 9.79768629 -5.64477539 8.29711914 C-5.48122055 7.58994247 -5.31766571 6.88276581 -5.14915466 6.15415955 C-3.72580641 0.14750958 -3.72580641 0.14750958 0 0 Z " fill="#5E5E5E" transform="translate(1953.867431640625,829.886474609375)" />
<path d="M0 0 C9.9 0 19.8 0 30 0 C28.65264218 15.15777542 26.50240258 29.9855845 24 45 C31.92 45 39.84 45 48 45 C47.45101811 49.62676832 46.90048165 54.25329619 46.34594727 58.87939453 C46.15785183 60.45252688 45.97066874 62.02576859 45.78442383 63.59912109 C45.5162467 65.86325116 45.24476907 68.12696499 44.97265625 70.390625 C44.8491555 71.44240936 44.8491555 71.44240936 44.72315979 72.51544189 C44.32887317 75.76988848 43.79747289 78.81010846 43 82 C34.42 82 25.84 82 17 82 C16.9175 83.98 16.835 85.96 16.75 88 C16.34862584 95.10505542 15.26381764 102.05335761 14.0625 109.0625 C13.88396484 110.10825195 13.70542969 111.15400391 13.52148438 112.23144531 C12.89687657 115.86355113 12.27035766 119.4952052 11.61865234 123.12255859 C10.28555558 130.59949262 9.75830788 137.98027419 9.625 145.5625 C9.59889648 146.42069336 9.57279297 147.27888672 9.54589844 148.16308594 C9.53467765 152.21058524 9.70694645 154.48419947 11.7421875 158.06640625 C14.29107883 160.24928031 15.20909503 160.58913423 18.5 160.375 C19.2528125 160.34148437 20.005625 160.30796875 20.78125 160.2734375 C22.92231638 160.00957369 24.9230336 159.57588614 27 159 C28.8150346 164.05266387 30.01270199 169.13484048 31.125 174.375 C31.30675781 175.18710937 31.48851562 175.99921875 31.67578125 176.8359375 C32.77731829 182.00405113 33.18217744 186.71685433 33 192 C31.0848421 192.81604999 29.16781166 193.62770632 27.25 194.4375 C26.18265625 194.88996094 25.1153125 195.34242188 24.015625 195.80859375 C14.39091669 199.61110157 1.55425267 199.59932733 -8.42578125 197.1640625 C-16.60244703 193.37456576 -21.76858592 186.5267785 -25.17578125 178.37109375 C-25.44777344 177.58863281 -25.71976563 176.80617188 -26 176 C-26.35835937 174.99195313 -26.71671875 173.98390625 -27.0859375 172.9453125 C-28.49562948 167.85532483 -28.33950888 162.68246403 -28.3125 157.4375 C-28.30730347 155.78681519 -28.30730347 155.78681519 -28.30200195 154.1027832 C-28.17234346 144.12767542 -27.02539584 134.46209062 -25.42333984 124.62890625 C-25.00260511 122.01617751 -24.61494571 119.40066822 -24.23828125 116.78125 C-23.06485463 108.64693602 -21.78862528 100.53363835 -20.375 92.4375 C-20.25189453 91.72875732 -20.12878906 91.02001465 -20.00195312 90.28979492 C-19.49245051 87.43439869 -18.91892605 84.75677815 -18 82 C-22.62 82 -27.24 82 -32 82 C-31.35220248 70.21008512 -29.77507739 58.66574846 -28 47 C-25.91727106 46.66291092 -23.83378963 46.33046884 -21.75 46 C-20.58984375 45.814375 -19.4296875 45.62875 -18.234375 45.4375 C-15 45 -15 45 -11 45 C-10.89623047 44.44924805 -10.79246094 43.89849609 -10.68554688 43.33105469 C-9.18408815 35.58189427 -7.35739979 27.92051713 -5.5 20.25 C-5.18868898 18.94924581 -4.87749043 17.6484647 -4.56640625 16.34765625 C-4.26605469 15.10371094 -3.96570312 13.85976563 -3.65625 12.578125 C-3.25116211 10.89831543 -3.25116211 10.89831543 -2.83789062 9.18457031 C-2.02254877 6.08570109 -1.01330019 3.03990057 0 0 Z " fill="#5E5E5E" transform="translate(1864,830)" />
<path d="M0 0 C8.07344273 4.66805693 15.31990221 11.47985331 20.5 19.25 C20.16601156 22.71524076 18.48715308 24.94583586 16.4453125 27.69140625 C15.83042969 28.52220703 15.21554687 29.35300781 14.58203125 30.20898438 C13.93621094 31.06814453 13.29039063 31.92730469 12.625 32.8125 C11.98691406 33.67552734 11.34882812 34.53855469 10.69140625 35.42773438 C5.52204225 42.372381 5.52204225 42.372381 2.5 45.25 C2.0153125 44.71890625 1.530625 44.1878125 1.03125 43.640625 C-4.39893152 37.91804909 -9.51213712 33.24082854 -17.6875 32.75 C-21.92997762 33.30639051 -23.55412491 34.21485597 -26.5 37.25 C-28.03214888 40.31429776 -27.72938548 42.8665642 -27.5 46.25 C-25.22962291 51.61877406 -20.85966673 54.12199033 -16.1875 57.25 C-3.08832149 66.15608513 6.89701146 75.56838136 11.078125 91.4453125 C13.45143679 107.22344085 11.6045942 122.4036304 2.4765625 135.74609375 C-6.46859862 147.07780971 -18.46994407 152.62971571 -32.6171875 154.53515625 C-44.80070219 155.11652728 -55.68692862 149.69944556 -64.6875 142 C-69.72196174 137.30273741 -75.57801933 131.3984399 -76.5 124.25 C-75.49951172 122.31469727 -75.49951172 122.31469727 -73.9296875 120.31640625 C-73.3625 119.58486328 -72.7953125 118.85332031 -72.2109375 118.09960938 C-71.60507813 117.34486328 -70.99921875 116.59011719 -70.375 115.8125 C-69.79234375 115.06162109 -69.2096875 114.31074219 -68.609375 113.53710938 C-65.45240494 109.51303432 -62.20983851 105.77084674 -58.5 102.25 C-57.6646875 103.24580078 -57.6646875 103.24580078 -56.8125 104.26171875 C-50.80976891 111.20744645 -44.81545143 117.77336216 -35.1875 118.5 C-30.28281368 118.16747889 -26.97740296 116.72740296 -23.5 113.25 C-23.10516609 111.21573795 -23.10516609 111.21573795 -23.125 108.9375 C-23.09664062 108.17824219 -23.06828125 107.41898438 -23.0390625 106.63671875 C-24.25543614 100.33837725 -30.30796613 96.98376286 -35.1875 93.5 C-48.97448348 83.36882093 -59.22163579 72.636381 -62.5 55.25 C-64.17233577 39.60325327 -61.20798756 25.90505522 -51.5 13.25 C-39.18316658 -1.74337607 -18.16034029 -8.37856685 0 0 Z " fill="#5E5E5E" transform="translate(1503.5,874.75)" />
<path d="M0 0 C11.88 0 23.76 0 36 0 C34.99993672 13.2008353 33.24058677 26.12209067 30.99194336 39.15820312 C27.99534071 56.56721517 25.43106376 74.03449288 22.89208984 91.51538086 C21.32044963 102.30026417 19.68586585 113.06621431 17.8671875 123.8125 C16.49107422 131.94426452 15.20795167 140.05669569 14.25 148.25 C14.06244141 149.72533203 14.06244141 149.72533203 13.87109375 151.23046875 C13.04026644 158.17837627 12.86105203 165.00628551 13 172 C15.97 172.99 15.97 172.99 19 174 C19.93938295 181.56378017 20.12265008 189.00907505 20.0625 196.625 C20.05798828 197.72457031 20.05347656 198.82414063 20.04882812 199.95703125 C20.03717139 202.63808003 20.02081017 205.31900932 20 208 C11.08690929 212.6591156 1.26325965 213.45479133 -8.65234375 211.46875 C-16.30970375 208.76442325 -19.54973021 204.56748276 -22.984375 197.53515625 C-33.06947034 172.36120673 -20.66055541 133.29794241 -16.23632812 107.47875977 C-14.27798672 95.99763407 -12.62338465 84.48958991 -11.06399536 72.94818115 C-9.69952329 62.85820167 -8.19466309 52.81458057 -6.45532227 42.78100586 C-4.8482784 33.39360787 -3.5685158 23.9663895 -2.30639648 14.52758789 C-2.07158569 12.7756311 -2.07158569 12.7756311 -1.83203125 10.98828125 C-1.69514893 9.95227783 -1.5582666 8.91627441 -1.41723633 7.84887695 C-1.03197704 5.21833823 -0.52139453 2.60697266 0 0 Z " fill="#5E5E5E" transform="translate(2028,816)" />
<path d="M0 0 C5.43854992 5.56502782 8.35333866 11.09800315 8.36669922 18.89770508 C8.34881348 19.5708374 8.33092773 20.24396973 8.3125 20.9375 C8.29977051 21.64479248 8.28704102 22.35208496 8.27392578 23.08081055 C7.99682581 32.99801245 5.32983613 42.9277396 -2.1015625 50 C-8.92216752 55.15885761 -14.40130465 56.05688022 -23 55 C-28.16200946 52.59638391 -30.77105313 48.29161377 -33.17749023 43.30566406 C-34.66646221 39.13176933 -34.59087579 35.01351034 -34.5 30.625 C-34.48791504 29.69469971 -34.47583008 28.76439941 -34.46337891 27.8059082 C-34.27229591 21.21586091 -33.58244667 15.67220722 -30 10 C-29.54109375 9.26652344 -29.0821875 8.53304687 -28.609375 7.77734375 C-25.28568825 2.95799796 -21.66311521 -0.53475392 -16.125 -2.75 C-9.83908364 -3.48951957 -5.39164329 -3.59442886 0 0 Z " fill="#A20202" transform="translate(2100,973)" />
<path d="M0 0 C0 3 0 3 -5 9 C54.895 8.505 54.895 8.505 116 8 C116 8.66 116 9.32 116 10 C74.75 10 33.5 10 -9 10 C-9 9.01 -9 8.02 -9 7 C-7.03125 5.17578125 -7.03125 5.17578125 -4.5 3.3125 C-3.6646875 2.68988281 -2.829375 2.06726563 -1.96875 1.42578125 C-0.99421875 0.72001953 -0.99421875 0.72001953 0 0 Z " fill="#B93E3E" transform="translate(2141,1015)" />
<path d="M0 0 C0 4.31618166 -2.13270348 5.92789659 -5 9 C-5.66 9 -6.32 9 -7 9 C-6.82374165 6.62051228 -6.30280227 5.29774151 -4.59765625 3.62109375 C-3.09350908 2.37884514 -1.54870149 1.18623944 0 0 Z " fill="#B32E2E" transform="translate(2141,1015)" />
  </g>
</svg>